<svg version="1.1" id="Layer_1" xmlns="http://www.w3.org/2000/svg" xmlns:xlink="http://www.w3.org/1999/xlink" x="0px" y="0px"
	 width="100%" viewBox="0 0 240 96" enable-background="new 0 0 240 192" xml:space="preserve">
<path fill="#000000" opacity="1.000000" stroke="none" 
	d="
M241.000000,120.531342 
	C236.344803,133.856216 229.614746,145.235214 219.371689,154.646011 
	C183.183899,187.893494 121.647346,173.295822 104.622047,127.221321 
	C103.966240,125.446564 102.490654,123.004410 104.915092,121.963295 
	C107.767433,120.738403 108.871208,123.500175 109.895218,125.605087 
	C120.009735,146.396027 136.537720,158.810394 159.154984,163.141830 
	C194.706268,169.950272 229.027802,147.851303 237.061752,113.066475 
	C242.857147,87.973984 229.623825,59.670254 206.045303,46.727783 
	C169.996109,26.940046 128.885361,39.475952 109.950623,76.029228 
	C109.491844,76.914902 109.080956,77.832298 108.546120,78.670021 
	C107.750679,79.915939 106.608498,80.552109 105.146736,79.926407 
	C103.566818,79.250145 103.620529,77.842369 104.012482,76.520210 
	C105.395119,71.856148 107.553856,67.525124 110.183090,63.464069 
	C125.360970,40.020626 147.041397,27.702824 174.859558,29.295828 
	C206.708359,31.119642 228.443512,48.038063 239.667160,78.094368 
	C239.957840,78.872780 240.329224,79.621071 240.831482,80.691696 
	C241.000000,94.020897 241.000000,107.041786 241.000000,120.531342 
z"/>
<path fill="#000000" opacity="1.000000" stroke="none" 
	d="
M241.000000,68.536819 
	C238.608658,65.026642 236.429199,60.906311 233.791534,57.103813 
	C216.851532,32.682606 193.036255,18.653639 164.376144,12.954155 
	C127.671280,5.654856 93.466133,11.986509 63.072384,34.579193 
	C49.587925,44.602642 39.520744,57.541988 33.447247,73.376945 
	C33.030071,74.464615 32.670574,75.576996 32.202641,76.642029 
	C31.401726,78.464951 30.638807,80.854675 28.076181,79.919174 
	C25.741245,79.066795 26.781847,76.823402 27.239790,75.151779 
	C29.233141,67.875435 32.272617,61.003563 36.243092,54.628292 
	C54.528553,25.267853 81.472977,8.927260 115.015991,2.618339 
	C116.808472,2.281201 118.570076,1.779862 120.673027,1.177481 
	C131.354233,1.000000 141.708450,1.000000 152.886688,1.135267 
	C156.153107,1.730364 158.593643,2.200592 161.038284,2.648396 
	C183.422638,6.748749 203.281433,15.991745 220.363098,31.208632 
	C228.516434,38.471874 234.678543,47.274261 241.000000,56.000000 
	C241.000000,60.024544 241.000000,64.049088 241.000000,68.536819 
z"/>
<path fill="#000000" opacity="1.000000" stroke="none" 
	d="
M91.468658,193.000000 
	C79.282005,187.712280 68.116638,181.527893 58.280422,173.127869 
	C43.618538,160.606766 32.954643,145.419907 27.283066,126.888176 
	C26.715717,125.034378 25.660280,122.631279 28.333569,121.785278 
	C31.006872,120.939270 31.511654,123.581825 32.207535,125.362900 
	C47.017071,163.267212 76.756554,182.283356 115.010811,189.580704 
	C146.453751,195.578735 176.306458,190.164047 203.775833,173.411957 
	C219.791016,163.645172 231.867661,150.095062 240.738342,133.221832 
	C241.000000,137.024551 241.000000,141.049088 240.731079,145.732391 
	C232.310379,159.077515 222.286621,169.966492 210.069122,178.899338 
	C202.247910,184.617859 193.392273,188.368057 185.000000,193.000000 
	C153.979111,193.000000 122.958214,193.000000 91.468658,193.000000 
z"/>
<path fill="#000000" opacity="1.000000" stroke="none" 
	d="
M1.000000,84.375000 
	C6.448576,84.898422 11.934283,84.815475 17.410482,84.469177 
	C21.485165,84.211502 25.368330,84.779579 29.024172,86.582664 
	C31.935127,88.018372 33.679585,90.399399 33.717869,93.681969 
	C33.753025,96.696365 31.709785,98.511612 29.330248,99.885368 
	C25.759424,101.946884 21.825754,102.335808 17.769608,102.318367 
	C15.668572,102.309326 12.528187,101.219536 12.466745,104.930588 
	C12.414077,108.111763 10.727370,112.285851 15.990833,113.387871 
	C16.773304,113.551697 17.661884,113.635452 18.250380,115.196388 
	C12.676024,116.631203 7.015130,114.509354 1.308094,115.911896 
	C1.000000,115.555557 1.000000,115.111107 1.336502,114.180405 
	C4.463612,113.073555 5.809661,111.522850 5.716595,108.477852 
	C5.545744,102.887856 5.534457,97.284897 5.710414,91.695335 
	C5.819980,88.214828 4.226477,86.903458 1.000000,87.000000 
	C1.000000,86.250000 1.000000,85.500000 1.000000,84.375000 
M12.429912,96.805321 
	C14.456617,101.396347 18.218994,99.757996 21.345854,98.913017 
	C24.057882,98.180138 26.846781,96.420647 26.412758,93.034927 
	C25.921942,89.206184 22.925436,87.699791 19.327587,87.247429 
	C13.476562,86.511787 12.369214,87.483398 12.338911,93.490784 
	C12.334733,94.319145 12.359385,95.147659 12.429912,96.805321 
z"/>
<path fill="#000000" opacity="1.000000" stroke="none" 
	d="
M161.347046,100.105598 
	C163.033035,106.839493 161.086578,111.516380 155.702820,114.328804 
	C149.348846,117.648048 140.573349,116.509056 136.178772,111.794731 
	C132.433563,107.777023 131.949921,102.479355 134.924713,98.057961 
	C140.686218,89.494667 155.570297,90.436607 161.347046,100.105598 
M145.993774,95.263527 
	C141.273972,96.500137 139.919617,100.337181 139.684357,104.414047 
	C139.486130,107.848900 141.104797,110.870079 144.325760,112.677795 
	C146.920776,114.134216 149.509369,114.026413 151.761551,112.111099 
	C155.090622,109.279991 156.292053,105.651985 155.068405,101.371559 
	C153.880035,97.214569 151.389633,94.737022 145.993774,95.263527 
z"/>
<path fill="#000000" opacity="1.000000" stroke="none" 
	d="
M198.741516,100.996216 
	C203.509903,92.115906 214.434753,89.472984 222.353622,94.933495 
	C228.442429,99.132080 229.118744,106.983269 223.836716,112.150642 
	C219.453171,116.439041 211.572708,117.531898 205.701004,114.665718 
	C199.802841,111.786613 197.773666,107.958328 198.741516,100.996216 
M219.683838,108.972466 
	C221.098618,105.936981 221.091415,102.860313 219.744690,99.838097 
	C217.674133,95.191483 212.381836,93.521484 208.643250,96.356110 
	C205.360489,98.845123 204.774994,102.369095 205.302200,106.186935 
	C205.773071,109.596886 207.628662,112.056122 210.873367,113.186699 
	C214.649277,114.502365 217.203476,112.477058 219.683838,108.972466 
z"/>
<path fill="#000000" opacity="1.000000" stroke="none" 
	d="
M34.673958,104.851456 
	C35.237049,97.409340 38.913044,93.604889 46.261780,92.429520 
	C53.509991,91.270241 60.298054,94.305870 62.643303,99.940079 
	C64.216728,103.720055 63.953522,107.481079 61.336773,110.748436 
	C57.259285,115.839722 51.724270,117.011490 45.650574,115.806389 
	C39.860336,114.657532 35.500751,111.734734 34.673958,104.851456 
M43.493210,110.899673 
	C46.660133,114.042564 50.045742,114.745720 53.678169,111.709274 
	C56.919403,108.999847 57.876431,103.334183 55.777836,99.316139 
	C53.901703,95.724037 50.816994,94.479919 46.980492,95.285522 
	C43.149246,96.090012 41.033623,100.027382 41.286644,105.189560 
	C41.380135,107.096954 41.941418,108.771133 43.493210,110.899673 
z"/>
<path fill="#000000" opacity="1.000000" stroke="none" 
	d="
M133.971695,86.061012 
	C130.168839,89.077126 129.776154,83.867126 126.844788,83.780357 
	C124.386566,85.379257 123.885139,88.150658 124.644943,90.895981 
	C125.549446,94.164131 129.712723,91.480858 131.870255,94.689003 
	C127.584976,95.934799 122.832420,96.782845 124.224701,103.117218 
	C125.148605,107.320625 122.521805,112.730972 128.976471,115.203506 
	C124.058594,115.203506 119.140709,115.203506 113.756897,115.203506 
	C114.998810,112.889534 118.565552,112.561653 118.086678,109.217659 
	C117.713882,106.614426 117.975761,103.915680 118.009918,101.260086 
	C118.044754,98.551361 118.023521,95.891594 114.289108,94.575516 
	C117.346718,92.300720 118.299286,89.830887 119.086151,87.046913 
	C120.468910,82.154610 127.378876,79.211647 132.191833,81.019760 
	C134.531204,81.898613 135.176819,83.465462 133.971695,86.061012 
z"/>
<path fill="#000000" opacity="1.000000" stroke="none" 
	d="
M165.504974,113.711578 
	C167.947250,112.371414 167.890411,110.356285 167.881165,108.314880 
	C167.855515,102.652725 167.757065,96.986824 167.925217,91.329468 
	C168.018402,88.193993 167.764511,85.409210 164.067657,83.821053 
	C167.261139,81.510498 170.285812,81.229973 174.321228,81.073792 
	C174.321228,86.873375 174.321991,92.467339 174.320892,98.061310 
	C174.320343,100.892479 174.367325,103.724831 174.301025,106.554504 
	C174.220215,110.004166 173.841370,113.562599 179.357941,113.798607 
	C175.667664,116.305092 167.900345,116.077370 165.504974,113.711578 
z"/>
<path fill="#000000" opacity="1.000000" stroke="none" 
	d="
M106.515816,114.972900 
	C98.034973,117.868546 95.159897,115.679237 94.912407,107.200401 
	C94.780403,102.678391 96.899971,97.522621 91.774200,93.803253 
	C94.337837,91.168221 96.725899,88.610153 100.551117,86.591507 
	C100.620056,91.588036 103.700203,93.179115 107.659485,93.499496 
	C107.451294,94.270294 107.464180,94.663750 107.273811,94.857986 
	C105.677444,96.486732 101.848427,94.299904 101.562035,97.543602 
	C101.156631,102.135399 101.414871,106.810066 101.731506,111.425858 
	C101.821289,112.734657 103.442299,112.719765 104.637360,112.237450 
	C105.827446,111.757133 106.682816,110.446518 108.449280,110.848557 
	C109.560371,112.741119 107.940010,113.665115 106.515816,114.972900 
z"/>
<path fill="#000000" opacity="1.000000" stroke="none" 
	d="
M87.540466,97.501663 
	C84.262840,101.080933 82.028992,97.896790 79.693306,96.648888 
	C74.356750,102.154076 75.003151,111.108551 81.564064,114.848534 
	C76.361031,116.657921 71.722488,114.715538 66.847237,115.129639 
	C71.259354,112.870178 70.664680,109.020348 70.605812,105.368240 
	C70.548637,101.820961 71.663803,97.862968 66.525215,96.168022 
	C72.523895,91.546738 78.885788,93.604652 84.690353,92.754837 
	C87.100998,92.401901 88.533318,94.430908 87.540466,97.501663 
z"/>
<path fill="#000000" opacity="1.000000" stroke="none" 
	d="
M192.265427,98.321991 
	C192.264053,101.428589 192.387695,104.084297 192.227859,106.722832 
	C192.019745,110.157944 192.267990,113.260063 196.037903,115.283676 
	C191.499054,115.283676 186.960190,115.283676 182.104141,115.283676 
	C187.056656,109.823189 187.258224,100.377579 182.828690,95.442726 
	C190.031982,91.091057 191.969604,91.588158 192.265427,98.321991 
z"/>
<path fill="#000000" opacity="1.000000" stroke="none" 
	d="
M185.006897,88.597946 
	C186.177155,87.545891 187.187790,86.681465 188.349899,86.145500 
	C189.744583,85.502243 191.609344,84.307953 192.301239,86.819611 
	C192.850723,88.814247 191.254425,89.888092 189.555862,90.118164 
	C187.961639,90.334099 185.965881,91.198105 185.006897,88.597946 
z"/>
</svg>