<svg width="47" height="47" viewBox="0 0 47 47" fill="none" xmlns="http://www.w3.org/2000/svg">
<path d="M30.7308 28.9231C30.7308 29.8819 30.3499 30.8015 29.6719 31.4795C28.9938 32.1575 28.0742 32.5385 27.1154 32.5385H25.3077V25.3077H27.1154C28.0742 25.3077 28.9938 25.6886 29.6719 26.3666C30.3499 27.0446 30.7308 27.9642 30.7308 28.9231ZM47 23.5C47 28.1479 45.6217 32.6913 43.0395 36.5559C40.4573 40.4204 36.7871 43.4325 32.4931 45.2112C28.199 46.9898 23.4739 47.4552 18.9154 46.5484C14.3568 45.6417 10.1695 43.4035 6.883 40.117C3.59647 36.8305 1.35831 32.6432 0.451556 28.0846C-0.455196 23.5261 0.0101821 18.801 1.78884 14.5069C3.5675 10.2129 6.57955 6.54268 10.4441 3.96046C14.3087 1.37825 18.8521 0 23.5 0C29.7306 0.00657959 35.7041 2.48458 40.1097 6.89026C44.5154 11.2959 46.9934 17.2694 47 23.5ZM34.3462 28.9231C34.3462 27.0054 33.5843 25.1662 32.2283 23.8101C30.8723 22.4541 29.0331 21.6923 27.1154 21.6923H25.3077V14.4615H26.2115C27.1704 14.4615 28.09 14.8424 28.768 15.5205C29.446 16.1985 29.8269 17.1181 29.8269 18.0769C29.8269 18.5563 30.0174 19.0161 30.3564 19.3552C30.6954 19.6942 31.1552 19.8846 31.6346 19.8846C32.114 19.8846 32.5738 19.6942 32.9129 19.3552C33.2519 19.0161 33.4423 18.5563 33.4423 18.0769C33.4423 16.1592 32.6805 14.32 31.3245 12.964C29.9684 11.608 28.1293 10.8462 26.2115 10.8462H25.3077V9.03846C25.3077 8.55903 25.1172 8.09924 24.7782 7.76023C24.4392 7.42122 23.9794 7.23077 23.5 7.23077C23.0206 7.23077 22.5608 7.42122 22.2218 7.76023C21.8828 8.09924 21.6923 8.55903 21.6923 9.03846V10.8462H20.7885C18.8707 10.8462 17.0316 11.608 15.6755 12.964C14.3195 14.32 13.5577 16.1592 13.5577 18.0769C13.5577 19.9946 14.3195 21.8338 15.6755 23.1898C17.0316 24.5459 18.8707 25.3077 20.7885 25.3077H21.6923V32.5385H19.8846C18.9258 32.5385 18.0062 32.1575 17.3282 31.4795C16.6501 30.8015 16.2692 29.8819 16.2692 28.9231C16.2692 28.4436 16.0788 27.9838 15.7398 27.6448C15.4008 27.3058 14.941 27.1154 14.4615 27.1154C13.9821 27.1154 13.5223 27.3058 13.1833 27.6448C12.8443 27.9838 12.6539 28.4436 12.6539 28.9231C12.6539 30.8408 13.4157 32.68 14.7717 34.036C16.1277 35.392 17.9669 36.1538 19.8846 36.1538H21.6923V37.9615C21.6923 38.441 21.8828 38.9008 22.2218 39.2398C22.5608 39.5788 23.0206 39.7692 23.5 39.7692C23.9794 39.7692 24.4392 39.5788 24.7782 39.2398C25.1172 38.9008 25.3077 38.441 25.3077 37.9615V36.1538H27.1154C29.0331 36.1538 30.8723 35.392 32.2283 34.036C33.5843 32.68 34.3462 30.8408 34.3462 28.9231ZM17.1731 18.0769C17.1731 19.0358 17.554 19.9554 18.232 20.6334C18.91 21.3114 19.8296 21.6923 20.7885 21.6923H21.6923V14.4615H20.7885C19.8296 14.4615 18.91 14.8424 18.232 15.5205C17.554 16.1985 17.1731 17.1181 17.1731 18.0769Z" fill="#FAFAFA"/>
</svg>
