<svg width="45" height="47" viewBox="0 0 45 47" fill="none" xmlns="http://www.w3.org/2000/svg">
<path d="M0 13.3332C0.000664669 13.0413 0.0779901 12.7546 0.224237 12.502C0.370485 12.2493 0.580524 12.0395 0.833333 11.8936L20.8333 0.226918C21.0882 0.0783054 21.3779 0 21.6729 0C21.9679 0 22.2577 0.0783054 22.5125 0.226918L42.5125 11.8936C42.7641 12.0404 42.9728 12.2505 43.1179 12.5031C43.263 12.7557 43.3393 13.0419 43.3393 13.3332C43.3393 13.6244 43.263 13.9106 43.1179 14.1632C42.9728 14.4158 42.7641 14.626 42.5125 14.7728L22.5125 26.4394C22.2577 26.588 21.9679 26.6663 21.6729 26.6663C21.3779 26.6663 21.0882 26.588 20.8333 26.4394L0.833333 14.7728C0.580524 14.6268 0.370485 14.417 0.224237 14.1644C0.0779901 13.9117 0.000664669 13.6251 0 13.3332ZM40.8333 21.8936L21.6667 33.0707L2.5 21.8936C2.12051 21.7046 1.68328 21.6674 1.2773 21.7895C0.871326 21.9115 0.527117 22.1837 0.314735 22.5506C0.102353 22.9175 0.0377615 23.3515 0.134106 23.7643C0.230451 24.1772 0.480491 24.5378 0.833333 24.7728L20.8333 36.4394C21.0882 36.588 21.3779 36.6663 21.6729 36.6663C21.9679 36.6663 22.2577 36.588 22.5125 36.4394L42.5125 24.7728C42.7046 24.6641 42.8732 24.5183 43.0085 24.3439C43.1438 24.1696 43.2431 23.9701 43.3007 23.757C43.3583 23.544 43.373 23.3216 43.344 23.1028C43.3149 22.884 43.2427 22.6732 43.1315 22.4825C43.0203 22.2919 42.8724 22.1252 42.6962 21.9922C42.5201 21.8592 42.3193 21.7624 42.1055 21.7077C41.8917 21.6529 41.6692 21.6411 41.4508 21.673C41.2324 21.7049 41.0225 21.7799 40.8333 21.8936ZM43.3333 36.6665H40V33.3332C40 32.8911 39.8244 32.4672 39.5118 32.1547C39.1993 31.8421 38.7754 31.6665 38.3333 31.6665C37.8913 31.6665 37.4674 31.8421 37.1548 32.1547C36.8423 32.4672 36.6667 32.8911 36.6667 33.3332V36.6665H33.3333C32.8913 36.6665 32.4674 36.8421 32.1548 37.1547C31.8423 37.4672 31.6667 37.8911 31.6667 38.3332C31.6667 38.7752 31.8423 39.1991 32.1548 39.5117C32.4674 39.8242 32.8913 39.9998 33.3333 39.9998H36.6667V43.3332C36.6667 43.7752 36.8423 44.1991 37.1548 44.5117C37.4674 44.8242 37.8913 44.9998 38.3333 44.9998C38.7754 44.9998 39.1993 44.8242 39.5118 44.5117C39.8244 44.1991 40 43.7752 40 43.3332V39.9998H43.3333C43.7754 39.9998 44.1993 39.8242 44.5118 39.5117C44.8244 39.1991 45 38.7752 45 38.3332C45 37.8911 44.8244 37.4672 44.5118 37.1547C44.1993 36.8421 43.7754 36.6665 43.3333 36.6665ZM24.1667 41.6165L21.6667 43.0748L2.5 31.8936C2.12051 31.7046 1.68328 31.6674 1.2773 31.7895C0.871326 31.9115 0.527117 32.1837 0.314735 32.5506C0.102353 32.9175 0.0377615 33.3515 0.134106 33.7643C0.230451 34.1772 0.480491 34.5378 0.833333 34.7728L20.8333 46.4394C21.0882 46.588 21.3779 46.6663 21.6729 46.6663C21.9679 46.6663 22.2577 46.588 22.5125 46.4394L25.8458 44.4957C26.0379 44.387 26.2065 44.2412 26.3418 44.0669C26.4771 43.8925 26.5765 43.693 26.6341 43.4799C26.6916 43.2669 26.7063 43.0445 26.6773 42.8257C26.6482 42.6069 26.576 42.3961 26.4648 42.2054C26.3536 42.0148 26.2057 41.8481 26.0296 41.7151C25.8534 41.5821 25.6527 41.4854 25.4389 41.4306C25.2251 41.3758 25.0025 41.364 24.7841 41.3959C24.5657 41.4278 24.3558 41.5028 24.1667 41.6165Z" fill="#FAFAFA"/>
</svg>
