<svg width="43" height="36" viewBox="0 0 43 36" fill="none" xmlns="http://www.w3.org/2000/svg">
<path d="M39.2727 0H3.27273C2.40475 0 1.57231 0.344804 0.95856 0.958559C0.344804 1.57231 0 2.40475 0 3.27273V32.7273C0 33.5953 0.344804 34.4277 0.95856 35.0414C1.57231 35.6552 2.40475 36 3.27273 36H39.2727C40.1407 36 40.9731 35.6552 41.5869 35.0414C42.2007 34.4277 42.5455 33.5953 42.5455 32.7273V3.27273C42.5455 2.40475 42.2007 1.57231 41.5869 0.958559C40.9731 0.344804 40.1407 0 39.2727 0ZM36 31.0909H6.54545C6.11146 31.0909 5.69525 30.9185 5.38837 30.6116C5.08149 30.3048 4.90909 29.8885 4.90909 29.4545V6.54545C4.90909 6.11146 5.08149 5.69525 5.38837 5.38837C5.69525 5.08149 6.11146 4.90909 6.54545 4.90909C6.97945 4.90909 7.39566 5.08149 7.70254 5.38837C8.00942 5.69525 8.18182 6.11146 8.18182 6.54545V22.232L15.2059 15.2059C15.3579 15.0538 15.5384 14.9331 15.737 14.8507C15.9357 14.7684 16.1486 14.726 16.3636 14.726C16.5787 14.726 16.7916 14.7684 16.9903 14.8507C17.1889 14.9331 17.3694 15.0538 17.5214 15.2059L21.2727 18.9593L30.4139 9.81818H24.5455C24.1115 9.81818 23.6952 9.64578 23.3884 9.3389C23.0815 9.03202 22.9091 8.61581 22.9091 8.18182C22.9091 7.74783 23.0815 7.33161 23.3884 7.02473C23.6952 6.71786 24.1115 6.54545 24.5455 6.54545H34.3636C34.7976 6.54545 35.2138 6.71786 35.5207 7.02473C35.8276 7.33161 36 7.74783 36 8.18182V18C36 18.434 35.8276 18.8502 35.5207 19.1571C35.2138 19.464 34.7976 19.6364 34.3636 19.6364C33.9296 19.6364 33.5134 19.464 33.2066 19.1571C32.8997 18.8502 32.7273 18.434 32.7273 18V12.1316L22.4305 22.4305C22.2785 22.5826 22.098 22.7033 21.8994 22.7856C21.7007 22.868 21.4878 22.9104 21.2727 22.9104C21.0577 22.9104 20.8448 22.868 20.6461 22.7856C20.4474 22.7033 20.267 22.5826 20.115 22.4305L16.3636 18.677L8.18182 26.8589V27.8182H36C36.434 27.8182 36.8502 27.9906 37.1571 28.2975C37.464 28.6043 37.6364 29.0206 37.6364 29.4545C37.6364 29.8885 37.464 30.3048 37.1571 30.6116C36.8502 30.9185 36.434 31.0909 36 31.0909Z" fill="#FAFAFA"/>
</svg>
