<svg width="51" height="51" viewBox="0 0 51 51" fill="none" xmlns="http://www.w3.org/2000/svg">
<path d="M22.8579 21.3071C22.8579 19.8834 24.0121 18.7292 25.4358 18.7292C26.8596 18.7292 28.0137 19.8834 28.0137 21.3071C28.0137 22.7309 26.8596 23.8851 25.4358 23.8851C24.0121 23.8851 22.8579 22.7309 22.8579 21.3071Z" fill="#FDFDFD"/>
<path fill-rule="evenodd" clip-rule="evenodd" d="M14.6524 9.01898C14.6524 5.83926 17.2301 3.2616 20.4098 3.2616H31.0639C33.9114 3.2616 36.2197 5.56995 36.2197 8.41746C36.2197 9.55646 37.1431 10.4798 38.2821 10.4798H39.4975C42.766 10.4798 45.6407 13.0165 45.5076 16.4928C45.3368 20.9496 44.4712 28.0986 40.9996 34.4253C40.0585 36.1402 38.8018 37.8249 37.4432 39.3945L37.3409 39.5127C35.3865 41.771 33.7569 43.6539 32.005 44.9373C30.1206 46.3178 28.1095 47.0055 25.4361 47.0055C22.7627 47.0055 20.7515 46.3178 18.8672 44.9373C17.1153 43.6539 15.4857 41.771 13.5313 39.5127L13.429 39.3945C12.0704 37.8249 10.8136 36.1402 9.87258 34.4253C6.5127 28.3022 5.59155 21.8382 5.38217 17.6908C5.20582 14.1977 8.10119 11.6828 11.3516 11.6828H11.9885C13.4598 11.6828 14.6524 10.4902 14.6524 9.01898ZM25.4358 15.6357C22.3036 15.6357 19.7644 18.1749 19.7644 21.3071C19.7644 23.9032 21.5086 26.0918 23.889 26.7651V33.6812C23.889 34.5355 24.5816 35.228 25.4358 35.228C26.2901 35.228 26.9826 34.5355 26.9826 33.6812V26.7651C29.363 26.0918 31.1073 23.9032 31.1073 21.3071C31.1073 18.1749 28.5681 15.6357 25.4358 15.6357Z" fill="#FDFDFD"/>
</svg>
