<svg version="1.1" xmlns="http://www.w3.org/2000/svg" xmlns:xlink="http://www.w3.org/1999/xlink" width="43" height="43" viewBox="0,0,256,256"><g fill="#ffffff" fill-rule="evenodd" stroke="none" stroke-width="1" stroke-linecap="butt" stroke-linejoin="miter" stroke-miterlimit="10" stroke-dasharray="" stroke-dashoffset="0" font-family="none" font-weight="none" font-size="none" text-anchor="none" style="mix-blend-mode: normal"><g transform="translate(-1.3623,-1.92994) scale(5.95349,5.95349)"><path d="M21.8262,0.84204c3.952,-0.00002 7.0498,-0.00003 9.5076,0.26627c2.5081,0.27175 4.5403,0.83626 6.2754,2.09697c1.0504,0.76323 1.9741,1.68704 2.7373,2.73754c1.2607,1.73522 1.8251,3.76754 2.0969,6.27578c0.2662,2.4579 0.2662,5.556 0.2662,9.5081v0.1951c0,3.9521 0,7.0501 -0.2662,9.5079c-0.2718,2.5083 -0.8362,4.5406 -2.0969,6.2758c-0.7632,1.0505 -1.6869,1.9743 -2.7373,2.7376c-1.7351,1.2607 -3.7673,1.8252 -6.2754,2.0969c-2.4577,0.2663 -5.5557,0.2663 -9.5076,0.2663h-0.195c-3.9518,0 -7.0496,0 -9.5073,-0.2663c-2.50811,-0.2717 -4.54029,-0.8362 -6.2754,-2.0969c-1.05043,-0.7633 -1.97419,-1.6871 -2.73737,-2.7376c-1.26063,-1.7352 -1.8251,-3.7675 -2.09684,-6.2758c-0.26627,-2.4579 -0.26626,-5.5559 -0.26624,-9.5081v-0.1948c-0.00002,-3.9523 -0.00003,-7.0503 0.26624,-9.5082c0.27174,-2.50824 0.83621,-4.54056 2.09684,-6.27578c0.76318,-1.05049 1.68694,-1.97431 2.73737,-2.73754c1.73511,-1.26071 3.76729,-1.82522 6.2754,-2.09697c2.4577,-0.2663 5.5556,-0.26629 9.5075,-0.26627zM23.3427,11.0641c0,-0.8914 -0.7225,-1.61401 -1.6139,-1.61401c-0.8913,0 -1.6139,0.72261 -1.6139,1.61401v21.5201c0,0.8914 0.7226,1.614 1.6139,1.614c0.8914,0 1.6139,-0.7226 1.6139,-1.614zM31.9502,19.6722c0,-0.8914 -0.7225,-1.6141 -1.6139,-1.6141c-0.8913,0 -1.6139,0.7227 -1.6139,1.6141v12.912c0,0.8914 0.7226,1.614 1.6139,1.614c0.8914,0 1.6139,-0.7226 1.6139,-1.614zM14.7352,23.9762c0,-0.8914 -0.7225,-1.614 -1.6139,-1.614c-0.8913,0 -1.6139,0.7226 -1.6139,1.614v8.608c0,0.8914 0.7226,1.614 1.6139,1.614c0.8914,0 1.6139,-0.7226 1.6139,-1.614z"></path></g></g></svg>