<svg width="56" height="38" viewBox="0 0 56 38" fill="none" xmlns="http://www.w3.org/2000/svg">
<path fill-rule="evenodd" clip-rule="evenodd" d="M24.8889 29.2283C24.8889 31.4164 23.5778 33.5148 21.244 35.0619C18.9102 36.6091 15.7449 37.4783 12.4444 37.4783C9.14397 37.4783 5.97868 36.6091 3.64489 35.0619C1.31111 33.5148 0 31.4164 0 29.2283C0 24.6702 12.4444 0.353516 12.4444 0.353516H18.6667L12.4444 20.9784C15.7449 20.9784 18.9102 21.8476 21.244 23.3947C23.5778 24.9419 24.8889 27.0403 24.8889 29.2283ZM56 29.2283C56 31.4164 54.6889 33.5148 52.3551 35.0619C50.0213 36.6091 46.856 37.4783 43.5556 37.4783C40.2551 37.4783 37.0898 36.6091 34.756 35.0619C32.4222 33.5148 31.1111 31.4164 31.1111 29.2283C31.1111 24.6702 43.5556 0.353516 43.5556 0.353516H49.7778L43.5556 20.9784C46.856 20.9784 50.0213 21.8476 52.3551 23.3947C54.6889 24.9419 56 27.0403 56 29.2283Z" fill="#E6B366"/>
</svg>
