<svg width="29" height="33" viewBox="0 0 29 33" fill="none" xmlns="http://www.w3.org/2000/svg">
<path d="M9.33325 14.3329C9.33325 15.659 9.86004 16.9307 10.7977 17.8684C11.7354 18.8061 13.0072 19.3329 14.3333 19.3329C15.6593 19.3329 16.9311 18.8061 17.8688 17.8684C18.8065 16.9307 19.3333 15.659 19.3333 14.3329C19.3333 13.0068 18.8065 11.735 17.8688 10.7974C16.9311 9.85967 15.6593 9.33289 14.3333 9.33289C13.0072 9.33289 11.7354 9.85967 10.7977 10.7974C9.86004 11.735 9.33325 13.0068 9.33325 14.3329Z" stroke="#E6B366" stroke-width="2" stroke-linecap="round" stroke-linejoin="round"/>
<path d="M23.7617 23.7612L16.69 30.8328C16.065 31.4572 15.2176 31.808 14.3342 31.808C13.4507 31.808 12.6034 31.4572 11.9783 30.8328L4.90501 23.7612C3.04037 21.8965 1.77057 19.5207 1.25615 16.9343C0.741738 14.3479 1.00582 11.667 2.01501 9.23073C3.0242 6.79442 4.73317 4.71208 6.92581 3.24702C9.11845 1.78197 11.6963 1 14.3333 1C16.9704 1 19.5482 1.78197 21.7409 3.24702C23.9335 4.71208 25.6425 6.79442 26.6517 9.23073C27.6609 11.667 27.9249 14.3479 27.4105 16.9343C26.8961 19.5207 25.6263 21.8965 23.7617 23.7612Z" stroke="#E6B366" stroke-width="2" stroke-linecap="round" stroke-linejoin="round"/>
</svg>
