<svg width="32" height="26" viewBox="0 0 32 26" fill="none" xmlns="http://www.w3.org/2000/svg">
<path d="M1 4.99996C1 4.1159 1.35119 3.26806 1.97631 2.64294C2.60143 2.01782 3.44928 1.66663 4.33333 1.66663H27.6667C28.5507 1.66663 29.3986 2.01782 30.0237 2.64294C30.6488 3.26806 31 4.1159 31 4.99996V21.6666C31 22.5507 30.6488 23.3985 30.0237 24.0236C29.3986 24.6488 28.5507 25 27.6667 25H4.33333C3.44928 25 2.60143 24.6488 1.97631 24.0236C1.35119 23.3985 1 22.5507 1 21.6666V4.99996Z" stroke="#E6B366" stroke-width="2" stroke-linecap="round" stroke-linejoin="round"/>
<path d="M1 5L16 15L31 5" stroke="#E6B366" stroke-width="2" stroke-linecap="round" stroke-linejoin="round"/>
</svg>
