<svg width="32" height="32" viewBox="0 0 32 32" fill="none" xmlns="http://www.w3.org/2000/svg">
<path d="M1 15.9995C1 17.9693 1.38799 19.9199 2.14181 21.7398C2.89563 23.5596 4.00052 25.2132 5.3934 26.6061C6.78628 27.999 8.43986 29.1039 10.2597 29.8577C12.0796 30.6115 14.0302 30.9995 16 30.9995C17.9698 30.9995 19.9204 30.6115 21.7403 29.8577C23.5601 29.1039 25.2137 27.999 26.6066 26.6061C27.9995 25.2132 29.1044 23.5596 29.8582 21.7398C30.612 19.9199 31 17.9693 31 15.9995C31 14.0297 30.612 12.0791 29.8582 10.2593C29.1044 8.43938 27.9995 6.78579 26.6066 5.39291C25.2137 4.00003 23.5601 2.89514 21.7403 2.14132C19.9204 1.3875 17.9698 0.999512 16 0.999512C14.0302 0.999512 12.0796 1.3875 10.2597 2.14132C8.43986 2.89514 6.78628 4.00003 5.3934 5.39291C4.00052 6.78579 2.89563 8.43938 2.14181 10.2593C1.38799 12.0791 1 14.0297 1 15.9995Z" stroke="#E6B366" stroke-width="2" stroke-linecap="round" stroke-linejoin="round"/>
<path d="M16 15.9995L21 19.3328" stroke="#E6B366" stroke-width="2" stroke-linecap="round" stroke-linejoin="round"/>
<path d="M16 7.66614V15.9995" stroke="#E6B366" stroke-width="2" stroke-linecap="round" stroke-linejoin="round"/>
</svg>
