<svg width="250" height="32" viewBox="0 0 250 32" fill="none" xmlns="http://www.w3.org/2000/svg">
<path d="M48.9708 15.666C50.9568 10.8908 50.7854 7.17763 48.4668 4.52294C46.1415 1.87835 41.7662 0.551002 35.3279 0.551002H13.5392L11.5734 5.33616H26.5774C34.2323 5.33616 36.4468 9.1804 33.8056 15.5449C32.2833 19.2245 30.9358 22.6016 27.7535 24.1072C24.8368 25.4916 21.8258 25.8949 16.4695 25.8949L9.52695 25.878L14.712 13.4918H8.17608L0.816895 31.1269H20.5591C26.0935 31.1269 30.4654 30.6195 33.6812 29.5811C37.227 28.4393 40.4712 26.5158 43.1742 23.9526C45.7785 21.4692 47.7107 18.7037 48.9708 15.666ZM173.015 18.8818L186.282 5.87717L189.038 18.8818H173.015ZM60.2146 18.9356L73.1353 6.49548L75.4673 18.9356H60.2146ZM185.146 0.514038L185.153 0.544281H177.065L145.981 29.8365L158.132 0.554362H144.808L128.712 13.2532L120.426 20.1083H120.046L123.947 10.1247L119.192 0.551002H105.801L93.6368 29.8971L86.6304 0.551002H71.9624L39.5685 31.1269H47.6603L55.9437 23.1326H76.3545L77.9774 31.1269H99.6653L107.512 12.2283C107.902 11.2806 108.281 10.1885 108.647 8.96198C108.688 9.95665 108.95 11.0084 109.437 12.1039L116.326 27.8707H117.495L137.227 12.161C137.959 11.573 139.076 10.5111 140.577 8.96198C139.818 10.3969 139.284 11.4789 138.965 12.2283L131.128 31.1269H145.45V31.1135H160.549L168.731 23.0822H189.928L191.635 31.1135H199.085L191.823 0.514038H185.146ZM249.504 0.554362H227.715C221.28 0.554362 215.809 1.87835 211.289 4.51959C206.77 7.17427 203.527 10.8908 201.538 15.666C200.278 18.7037 199.918 21.4692 200.459 23.9526C201.095 26.5737 202.697 28.4487 205.278 29.5811C207.643 30.6195 211.599 31.1269 217.13 31.1269H236.828L238.784 26.2746H227.695C222.339 26.2746 218.784 25.5756 217.012 24.1911C215.07 22.7025 215.289 19.2279 216.804 15.5449C219.446 9.1804 224.977 5.21854 232.631 5.21854H241.22L239.251 9.99362H245.788L249.591 0.823191H249.4L249.504 0.554362Z" fill="black"/>
</svg>
